<svg xmlns="http://www.w3.org/2000/svg" xmlns:xlink="http://www.w3.org/1999/xlink" contentStyleType="text/css" data-diagram-type="CLASS" height="278.125px" preserveAspectRatio="none" style="width:1880px;height:278px;" version="1.1" viewBox="0 0 1880 278" width="1880.2083px" zoomAndPan="magnify"><defs/><g><!--cluster Scripts--><g id="cluster_Scripts"><path d="M20.8333,16.6667 L78.3915,16.6667 A6.25,6.25 0 0 1 82.5582,20.8333 L89.8499,47.8841 L1863.5417,47.8841 A4.1667,4.1667 0 0 1 1867.7083,52.0508 L1867.7083,262.4688 A4.1667,4.1667 0 0 1 1863.5417,266.6354 L20.8333,266.6354 A4.1667,4.1667 0 0 1 16.6667,262.4688 L16.6667,20.8333 A4.1667,4.1667 0 0 1 20.8333,16.6667 " fill="#555555" style="stroke:#2A9FD6;stroke-width:2.0833;"/><line style="stroke:#2A9FD6;stroke-width:2.0833;" x1="16.6667" x2="89.8499" y1="47.8841" y2="47.8841"/><text fill="#2A9FD6" font-family="Verdana" font-size="12.5" font-weight="bold" lengthAdjust="spacing" textLength="49.2249" x="26.0417" y="35.5611">Scripts</text></g><!--cluster Overworld--><g id="cluster_Overworld"><path d="M45.8333,68.75 L127.1159,68.75 A6.25,6.25 0 0 1 131.2826,72.9167 L138.5742,99.9674 L967.7083,99.9674 A4.1667,4.1667 0 0 1 971.875,104.1341 L971.875,237.4688 A4.1667,4.1667 0 0 1 967.7083,241.6354 L45.8333,241.6354 A4.1667,4.1667 0 0 1 41.6667,237.4688 L41.6667,72.9167 A4.1667,4.1667 0 0 1 45.8333,68.75 " fill="#555555" style="stroke:#2A9FD6;stroke-width:2.0833;"/><line style="stroke:#2A9FD6;stroke-width:2.0833;" x1="41.6667" x2="138.5742" y1="99.9674" y2="99.9674"/><text fill="#2A9FD6" font-family="Verdana" font-size="12.5" font-weight="bold" lengthAdjust="spacing" textLength="72.9492" x="51.0417" y="87.6444">Overworld</text></g><!--cluster Managers--><g id="cluster_Managers"><path d="M70.8333,120.8333 L148.4049,120.8333 A6.25,6.25 0 0 1 152.5716,125 L159.8633,152.0508 L297.9167,152.0508 A4.1667,4.1667 0 0 1 302.0833,156.2174 L302.0833,212.4688 A4.1667,4.1667 0 0 1 297.9167,216.6354 L70.8333,216.6354 A4.1667,4.1667 0 0 1 66.6667,212.4688 L66.6667,125 A4.1667,4.1667 0 0 1 70.8333,120.8333 " fill="#555555" style="stroke:#2A9FD6;stroke-width:2.0833;"/><line style="stroke:#2A9FD6;stroke-width:2.0833;" x1="66.6667" x2="159.8633" y1="152.0508" y2="152.0508"/><text fill="#2A9FD6" font-family="Verdana" font-size="12.5" font-weight="bold" lengthAdjust="spacing" textLength="69.2383" x="76.0417" y="139.7278">Managers</text></g><!--cluster Player--><g id="cluster_Player"><path d="M331.25,120.8333 L384.255,120.8333 A6.25,6.25 0 0 1 388.4216,125 L395.7133,152.0508 L520.8333,152.0508 A4.1667,4.1667 0 0 1 525,156.2174 L525,212.4688 A4.1667,4.1667 0 0 1 520.8333,216.6354 L331.25,216.6354 A4.1667,4.1667 0 0 1 327.0833,212.4688 L327.0833,125 A4.1667,4.1667 0 0 1 331.25,120.8333 " fill="#555555" style="stroke:#2A9FD6;stroke-width:2.0833;"/><line style="stroke:#2A9FD6;stroke-width:2.0833;" x1="327.0833" x2="395.7133" y1="152.0508" y2="152.0508"/><text fill="#2A9FD6" font-family="Verdana" font-size="12.5" font-weight="bold" lengthAdjust="spacing" textLength="44.6716" x="336.4583" y="139.7278">Player</text></g><!--cluster UI--><g id="cluster_UI"><path d="M554.1667,120.8333 L577.301,120.8333 A6.25,6.25 0 0 1 581.4677,125 L588.7594,152.0508 L737.5,152.0508 A4.1667,4.1667 0 0 1 741.6667,156.2174 L741.6667,212.4688 A4.1667,4.1667 0 0 1 737.5,216.6354 L554.1667,216.6354 A4.1667,4.1667 0 0 1 550,212.4688 L550,125 A4.1667,4.1667 0 0 1 554.1667,120.8333 " fill="#555555" style="stroke:#2A9FD6;stroke-width:2.0833;"/><line style="stroke:#2A9FD6;stroke-width:2.0833;" x1="550" x2="588.7594" y1="152.0508" y2="152.0508"/><text fill="#2A9FD6" font-family="Verdana" font-size="12.5" font-weight="bold" lengthAdjust="spacing" textLength="14.801" x="559.375" y="139.7278">UI</text></g><!--cluster Stage--><g id="cluster_Stage"><path d="M1001.0417,68.75 L1050.2136,68.75 A6.25,6.25 0 0 1 1054.3803,72.9167 L1061.672,99.9674 L1614.5833,99.9674 A4.1667,4.1667 0 0 1 1618.75,104.1341 L1618.75,237.4688 A4.1667,4.1667 0 0 1 1614.5833,241.6354 L1001.0417,241.6354 A4.1667,4.1667 0 0 1 996.875,237.4688 L996.875,72.9167 A4.1667,4.1667 0 0 1 1001.0417,68.75 " fill="#555555" style="stroke:#2A9FD6;stroke-width:2.0833;"/><line style="stroke:#2A9FD6;stroke-width:2.0833;" x1="996.875" x2="1061.672" y1="99.9674" y2="99.9674"/><text fill="#2A9FD6" font-family="Verdana" font-size="12.5" font-weight="bold" lengthAdjust="spacing" textLength="40.8386" x="1006.25" y="87.6444">Stage</text></g><!--cluster Managers--><g id="cluster_Managers"><path d="M1026.0417,120.8333 L1103.6133,120.8333 A6.25,6.25 0 0 1 1107.7799,125 L1115.0716,152.0508 L1223.9583,152.0508 A4.1667,4.1667 0 0 1 1228.125,156.2174 L1228.125,212.4688 A4.1667,4.1667 0 0 1 1223.9583,216.6354 L1026.0417,216.6354 A4.1667,4.1667 0 0 1 1021.875,212.4688 L1021.875,125 A4.1667,4.1667 0 0 1 1026.0417,120.8333 " fill="#555555" style="stroke:#2A9FD6;stroke-width:2.0833;"/><line style="stroke:#2A9FD6;stroke-width:2.0833;" x1="1021.875" x2="1115.0716" y1="152.0508" y2="152.0508"/><text fill="#2A9FD6" font-family="Verdana" font-size="12.5" font-weight="bold" lengthAdjust="spacing" textLength="69.2383" x="1031.25" y="139.7278">Managers</text></g><!--cluster UI--><g id="cluster_UI"><path d="M1257.2917,120.8333 L1280.426,120.8333 A6.25,6.25 0 0 1 1284.5927,125 L1291.8844,152.0508 L1413.5417,152.0508 A4.1667,4.1667 0 0 1 1417.7083,156.2174 L1417.7083,212.4688 A4.1667,4.1667 0 0 1 1413.5417,216.6354 L1257.2917,216.6354 A4.1667,4.1667 0 0 1 1253.125,212.4688 L1253.125,125 A4.1667,4.1667 0 0 1 1257.2917,120.8333 " fill="#555555" style="stroke:#2A9FD6;stroke-width:2.0833;"/><line style="stroke:#2A9FD6;stroke-width:2.0833;" x1="1253.125" x2="1291.8844" y1="152.0508" y2="152.0508"/><text fill="#2A9FD6" font-family="Verdana" font-size="12.5" font-weight="bold" lengthAdjust="spacing" textLength="14.801" x="1262.5" y="139.7278">UI</text></g><g id="elem_g"><path d="M1638.8229,168.75 L1638.8229,195.8008 A4.1667,4.1667 0 0 0 1642.9896,199.9674 L1846.5866,199.9674 A4.1667,4.1667 0 0 0 1850.7533,195.8008 L1850.7533,175 L1840.3366,164.5833 L1642.9896,164.5833 A4.1667,4.1667 0 0 0 1638.8229,168.75 " fill="#9933CC" style="stroke:#AD5CD6;stroke-width:1.0417;"/><path d="M1840.3366,164.5833 L1840.3366,172.9167 A2.0833,2.0833 0 0 0 1842.4199,175 L1850.7533,175 L1840.3366,164.5833 " fill="#9933CC" style="stroke:#AD5CD6;stroke-width:1.0417;"/><text fill="#FFFFFF" font-family="Verdana" font-size="12.5" lengthAdjust="spacing" textLength="179.6387" x="1650.2813" y="186.6028">General and auxiliary scripts</text></g><g id="elem_og"><path d="M761.5417,168.75 L761.5417,195.8008 A4.1667,4.1667 0 0 0 765.7083,199.9674 L950.9521,199.9674 A4.1667,4.1667 0 0 0 955.1187,195.8008 L955.1187,175 L944.7021,164.5833 L765.7083,164.5833 A4.1667,4.1667 0 0 0 761.5417,168.75 " fill="#9933CC" style="stroke:#AD5CD6;stroke-width:1.0417;"/><path d="M944.7021,164.5833 L944.7021,172.9167 A2.0833,2.0833 0 0 0 946.7854,175 L955.1187,175 L944.7021,164.5833 " fill="#9933CC" style="stroke:#AD5CD6;stroke-width:1.0417;"/><text fill="#FFFFFF" font-family="Verdana" font-size="12.5" lengthAdjust="spacing" textLength="161.2854" x="773" y="186.6028">Overworld general scripts</text></g><g id="elem_om"><path d="M83.25,168.75 L83.25,195.8008 A4.1667,4.1667 0 0 0 87.4167,199.9674 L281.3335,199.9674 A4.1667,4.1667 0 0 0 285.5002,195.8008 L285.5002,175 L275.0835,164.5833 L87.4167,164.5833 A4.1667,4.1667 0 0 0 83.25,168.75 " fill="#9933CC" style="stroke:#AD5CD6;stroke-width:1.0417;"/><path d="M275.0835,164.5833 L275.0835,172.9167 A2.0833,2.0833 0 0 0 277.1668,175 L285.5002,175 L275.0835,164.5833 " fill="#9933CC" style="stroke:#AD5CD6;stroke-width:1.0417;"/><text fill="#FFFFFF" font-family="Verdana" font-size="12.5" lengthAdjust="spacing" textLength="169.9585" x="94.7083" y="186.6028">Overworld manager scripts</text></g><g id="elem_p"><path d="M343.2917,168.75 L343.2917,195.8008 A4.1667,4.1667 0 0 0 347.4583,199.9674 L504.632,199.9674 A4.1667,4.1667 0 0 0 508.7987,195.8008 L508.7987,175 L498.382,164.5833 L347.4583,164.5833 A4.1667,4.1667 0 0 0 343.2917,168.75 " fill="#9933CC" style="stroke:#AD5CD6;stroke-width:1.0417;"/><path d="M498.382,164.5833 L498.382,172.9167 A2.0833,2.0833 0 0 0 500.4653,175 L508.7987,175 L498.382,164.5833 " fill="#9933CC" style="stroke:#AD5CD6;stroke-width:1.0417;"/><text fill="#FFFFFF" font-family="Verdana" font-size="12.5" lengthAdjust="spacing" textLength="133.2153" x="354.75" y="186.6028">Player-related scripts</text></g><g id="elem_oui"><path d="M566.3854,168.75 L566.3854,195.8008 A4.1667,4.1667 0 0 0 570.5521,199.9674 L721.1217,199.9674 A4.1667,4.1667 0 0 0 725.2884,195.8008 L725.2884,175 L714.8717,164.5833 L570.5521,164.5833 A4.1667,4.1667 0 0 0 566.3854,168.75 " fill="#9933CC" style="stroke:#AD5CD6;stroke-width:1.0417;"/><path d="M714.8717,164.5833 L714.8717,172.9167 A2.0833,2.0833 0 0 0 716.9551,175 L725.2884,175 L714.8717,164.5833 " fill="#9933CC" style="stroke:#AD5CD6;stroke-width:1.0417;"/><text fill="#FFFFFF" font-family="Verdana" font-size="12.5" lengthAdjust="spacing" textLength="126.6113" x="577.8438" y="186.6028">Overworld UI scripts</text></g><g id="elem_sg"><path d="M1437.1875,168.75 L1437.1875,195.8008 A4.1667,4.1667 0 0 0 1441.3542,199.9674 L1598.2349,199.9674 A4.1667,4.1667 0 0 0 1602.4015,195.8008 L1602.4015,175 L1591.9849,164.5833 L1441.3542,164.5833 A4.1667,4.1667 0 0 0 1437.1875,168.75 " fill="#9933CC" style="stroke:#AD5CD6;stroke-width:1.0417;"/><path d="M1591.9849,164.5833 L1591.9849,172.9167 A2.0833,2.0833 0 0 0 1594.0682,175 L1602.4015,175 L1591.9849,164.5833 " fill="#9933CC" style="stroke:#AD5CD6;stroke-width:1.0417;"/><text fill="#FFFFFF" font-family="Verdana" font-size="12.5" lengthAdjust="spacing" textLength="132.9224" x="1448.6458" y="186.6028">Stage general scripts</text></g><g id="elem_sm"><path d="M1038.0521,168.75 L1038.0521,195.8008 A4.1667,4.1667 0 0 0 1042.2188,199.9674 L1207.7725,199.9674 A4.1667,4.1667 0 0 0 1211.9392,195.8008 L1211.9392,175 L1201.5225,164.5833 L1042.2188,164.5833 A4.1667,4.1667 0 0 0 1038.0521,168.75 " fill="#9933CC" style="stroke:#AD5CD6;stroke-width:1.0417;"/><path d="M1201.5225,164.5833 L1201.5225,172.9167 A2.0833,2.0833 0 0 0 1203.6059,175 L1211.9392,175 L1201.5225,164.5833 " fill="#9933CC" style="stroke:#AD5CD6;stroke-width:1.0417;"/><text fill="#FFFFFF" font-family="Verdana" font-size="12.5" lengthAdjust="spacing" textLength="141.5955" x="1049.5104" y="186.6028">Stage manager scripts</text></g><g id="elem_sui"><path d="M1270.1458,168.75 L1270.1458,195.8008 A4.1667,4.1667 0 0 0 1274.3125,199.9674 L1396.5191,199.9674 A4.1667,4.1667 0 0 0 1400.6858,195.8008 L1400.6858,175 L1390.2691,164.5833 L1274.3125,164.5833 A4.1667,4.1667 0 0 0 1270.1458,168.75 " fill="#9933CC" style="stroke:#AD5CD6;stroke-width:1.0417;"/><path d="M1390.2691,164.5833 L1390.2691,172.9167 A2.0833,2.0833 0 0 0 1392.3525,175 L1400.6858,175 L1390.2691,164.5833 " fill="#9933CC" style="stroke:#AD5CD6;stroke-width:1.0417;"/><text fill="#FFFFFF" font-family="Verdana" font-size="12.5" lengthAdjust="spacing" textLength="98.2483" x="1281.6042" y="186.6028">Stage UI scripts</text></g><!--SRC=[dP113e8m44NtFKLbxpaC2wC9uG0ZJ6fZMyYqgCHmTv4AeTXWmYmwYp_lT_xit1KrygAzL2GOgw6uWK2UP0N9sjc4lnZlQtWcyNH7UbIaob4Er2EOlfETYvyobPkpNFivRiUlmF9AJqZtwtnMq2B5VRss9rJWi0nCwpNFFFstPvw6ApOouhU411eaK24fc8V2QsQkRnikEN3HArgz9R7tMwIrAsaz44jgWwH- -l2T0rDoQ9vIIQ0se0JhtW00]--></g></svg>